<!-- Generated by IcoMoon.io -->
<svg version="1.1" xmlns="http://www.w3.org/2000/svg" width="49" height="32" viewBox="0 0 49 32">
    <title>favicon</title>
    <path fill="#dc3b5a"
        d="M23.974 5.561c-5.12 0-7.984-1.258-13.022-1.331-0.17-0.002-0.254-0.2-0.129-0.31 3.594-3.178 10.519-3.92 12.927-3.92 2.022 0 8.728 0.586 12.631 3.898 0.133 0.112 0.044 0.317-0.133 0.314-5.052-0.078-5.088 1.347-12.276 1.347l0.002 0.002z">
    </path>
    <path fill="#dc3b5a"
        d="M16.066 31.524v0.002c0.348 0 0.656-0.226 0.77-0.545 0.562-1.562 2.527-5.952 6.88-5.952s6.318 4.39 6.878 5.952c0.114 0.321 0.42 0.545 0.77 0.545h15.66c0.311 0 0.494-0.342 0.328-0.597-1.992-3.063-1.508-5.081-0.861-7.763 0.453-1.88 0.984-4.085 0.796-7.207-0.284-4.688-3.041-7.638-8.194-8.719-2.678-0.561-6.137-0.034-9.382 0.463-2.064 0.315-4.042 0.618-5.678 0.618-2.195 0-4.46-0.363-6.673-0.718-3.196-0.513-6.279-1.008-8.87-0.363-4.994 1.242-7.469 3.829-8.385 8.994-0.343 2.681 0.227 4.721 0.754 6.615 0.713 2.56 1.351 4.853-0.424 8.106-0.138 0.255 0.046 0.568 0.345 0.568h15.287zM13.83 24.208c-3.061 1.741-7.042 1.714-8.586-1.725-1.753-3.907-0.050-9.43 4.886-10.797 5.169-1.431 10.171-0.732 9.983 3.036-0.14 2.801-2.704 7.451-6.283 9.484v0.002zM42.431 22.484c-1.543 3.439-5.525 3.463-8.586 1.725-3.579-2.035-6.142-6.685-6.283-9.484-0.188-3.768 4.814-4.467 9.983-3.036 4.934 1.367 6.638 6.89 4.886 10.797v-0.002z">
    </path>
</svg>