<svg aria-hidden="true" style="position: absolute; width: 0; height: 0; overflow: hidden;" version="1.1"
    xmlns="http://www.w3.org/2000/svg" xmlns:xlink="http://www.w3.org/1999/xlink">
    <defs>
        <symbol id="icon-favicon" viewBox="0 0 49 32">
            <path fill="#fff" style="fill: var(--color1, #fff)"
                d="M23.974 5.561c-5.12 0-7.984-1.258-13.022-1.331-0.17-0.002-0.254-0.2-0.129-0.31 3.594-3.178 10.519-3.92 12.927-3.92 2.022 0 8.728 0.586 12.631 3.898 0.133 0.112 0.044 0.317-0.133 0.314-5.052-0.078-5.088 1.347-12.276 1.347l0.002 0.002z">
            </path>
            <path fill="#fff" style="fill: var(--color1, #fff)"
                d="M16.066 31.524v0.002c0.348 0 0.656-0.226 0.77-0.545 0.562-1.562 2.527-5.952 6.88-5.952s6.318 4.39 6.878 5.952c0.114 0.321 0.42 0.545 0.77 0.545h15.66c0.311 0 0.494-0.342 0.328-0.597-1.992-3.063-1.508-5.081-0.861-7.763 0.453-1.88 0.984-4.085 0.796-7.207-0.284-4.688-3.041-7.638-8.194-8.719-2.678-0.561-6.137-0.034-9.382 0.463-2.064 0.315-4.042 0.618-5.678 0.618-2.195 0-4.46-0.363-6.673-0.718-3.196-0.513-6.279-1.008-8.87-0.363-4.994 1.242-7.469 3.829-8.385 8.994-0.343 2.681 0.227 4.721 0.754 6.615 0.713 2.56 1.351 4.853-0.424 8.106-0.138 0.255 0.046 0.568 0.345 0.568h15.287zM13.83 24.208c-3.061 1.741-7.042 1.714-8.586-1.725-1.753-3.907-0.050-9.43 4.886-10.797 5.169-1.431 10.171-0.732 9.983 3.036-0.14 2.801-2.704 7.451-6.283 9.484v0.002zM42.431 22.484c-1.543 3.439-5.525 3.463-8.586 1.725-3.579-2.035-6.142-6.685-6.283-9.484-0.188-3.768 4.814-4.467 9.983-3.036 4.934 1.367 6.638 6.89 4.886 10.797v-0.002z">
            </path>
        </symbol>
        <symbol id="icon-fox" viewBox="0 0 32 32">
            <path fill="#e27625" style="fill: var(--color2, #e27625)"
                d="M30.396 1.292l-12.479 9.188 2.313-5.417 10.167-3.771z"></path>
            <path fill="#e27625" style="fill: var(--color2, #e27625)"
                d="M1.583 1.292l12.375 9.271-2.208-5.5-10.167-3.771z"></path>
            <path fill="#e27625" style="fill: var(--color2, #e27625)"
                d="M25.917 22.604l-3.333 5.042 7.125 1.958 2.042-6.896-5.833-0.104z"></path>
            <path fill="#e27625" style="fill: var(--color2, #e27625)"
                d="M0.271 22.708l2.021 6.896 7.104-1.958-3.313-5.042-5.813 0.104z"></path>
            <path fill="#e27625" style="fill: var(--color2, #e27625)"
                d="M9.021 14.063l-1.979 2.979 7.042 0.313-0.229-7.542-4.833 4.25z"></path>
            <path fill="#e27625" style="fill: var(--color2, #e27625)"
                d="M22.979 14.063l-4.917-4.333-0.146 7.625 7.042-0.313-1.979-2.979z"></path>
            <path fill="#e27625" style="fill: var(--color2, #e27625)"
                d="M9.396 27.646l4.271-2.042-3.688-2.833-0.583 4.875z"></path>
            <path fill="#e27625" style="fill: var(--color2, #e27625)"
                d="M18.333 25.604l4.25 2.042-0.583-4.875-3.667 2.833z"></path>
            <path fill="#d7c1b3" style="fill: var(--color3, #d7c1b3)"
                d="M22.583 27.646l-4.25-2.042 0.354 2.75-0.042 1.167 3.937-1.875z"></path>
            <path fill="#d7c1b3" style="fill: var(--color3, #d7c1b3)"
                d="M9.396 27.646l3.958 1.875-0.021-1.167 0.333-2.75-4.271 2.042z"></path>
            <path fill="#2f343b" style="fill: var(--color4, #2f343b)"
                d="M13.417 20.937l-3.521-1.021 2.5-1.146 1.021 2.167z"></path>
            <path fill="#2f343b" style="fill: var(--color4, #2f343b)"
                d="M18.563 20.937l1.042-2.167 2.5 1.146-3.542 1.021z"></path>
            <path fill="#cc6228" style="fill: var(--color5, #cc6228)"
                d="M9.396 27.646l0.625-5.042-3.938 0.104 3.313 4.938z"></path>
            <path fill="#cc6228" style="fill: var(--color5, #cc6228)"
                d="M21.979 22.604l0.604 5.042 3.333-4.938-3.937-0.104z"></path>
            <path fill="#cc6228" style="fill: var(--color5, #cc6228)"
                d="M24.958 17.042l-7.042 0.313 0.646 3.583 1.042-2.167 2.5 1.146 2.854-2.875z"></path>
            <path fill="#cc6228" style="fill: var(--color5, #cc6228)"
                d="M9.896 19.917l2.5-1.146 1.021 2.167 0.667-3.583-7.042-0.313 2.854 2.875z"></path>
            <path fill="#e27625" style="fill: var(--color2, #e27625)"
                d="M7.042 17.042l2.937 5.729-0.083-2.854-2.854-2.875z"></path>
            <path fill="#e27625" style="fill: var(--color2, #e27625)"
                d="M22.104 19.917l-0.104 2.854 2.958-5.729-2.854 2.875z"></path>
            <path fill="#e27625" style="fill: var(--color2, #e27625)"
                d="M14.083 17.354l-0.667 3.583 0.833 4.25 0.188-5.583-0.354-2.25z"></path>
            <path fill="#e27625" style="fill: var(--color2, #e27625)"
                d="M17.917 17.354l-0.354 2.229 0.167 5.604 0.833-4.25-0.646-3.583z"></path>
            <path fill="#f5841f" style="fill: var(--color6, #f5841f)"
                d="M18.563 20.937l-0.833 4.25 0.604 0.417 3.667-2.833 0.104-2.854-3.542 1.021z"></path>
            <path fill="#f5841f" style="fill: var(--color6, #f5841f)"
                d="M9.896 19.917l0.083 2.854 3.688 2.833 0.583-0.417-0.833-4.25-3.521-1.021z"></path>
            <path fill="#c0ad9e" style="fill: var(--color7, #c0ad9e)"
                d="M18.646 29.521l0.042-1.167-0.333-0.271h-4.729l-0.292 0.271 0.021 1.167-3.958-1.875 1.375 1.125 2.813 1.937h4.813l2.812-1.937 1.375-1.125-3.937 1.875z">
            </path>
            <path fill="#2f343b" style="fill: var(--color4, #2f343b)"
                d="M18.333 25.604l-0.604-0.417h-3.479l-0.583 0.417-0.333 2.75 0.292-0.271h4.729l0.333 0.271-0.354-2.75z">
            </path>
            <path fill="#763e1a" style="fill: var(--color8, #763e1a)"
                d="M30.937 11.083l1.042-5.083-1.583-4.708-12.063 8.875 4.646 3.896 6.563 1.917 1.438-1.688-0.625-0.458 1-0.896-0.771-0.604 1-0.75-0.646-0.5z">
            </path>
            <path fill="#763e1a" style="fill: var(--color8, #763e1a)"
                d="M0 6l1.063 5.083-0.667 0.5 1 0.771-0.771 0.583 1 0.896-0.625 0.458 1.458 1.688 6.563-1.917 4.646-3.896-12.083-8.875-1.583 4.708z">
            </path>
            <path fill="#f5841f" style="fill: var(--color6, #f5841f)"
                d="M29.542 15.979l-6.563-1.917 1.979 2.979-2.958 5.729 3.917-0.063h5.833l-2.208-6.729z"></path>
            <path fill="#f5841f" style="fill: var(--color6, #f5841f)"
                d="M9.021 14.063l-6.563 1.917-2.188 6.729h5.813l3.896 0.063-2.938-5.729 1.979-2.979z"></path>
            <path fill="#f5841f" style="fill: var(--color6, #f5841f)"
                d="M17.917 17.354l0.417-7.188 1.896-5.104h-8.479l1.917 5.104 0.417 7.188 0.167 2.25v5.583h3.479l0.021-5.583 0.167-2.25z">
            </path>
        </symbol>
        <symbol id="icon-xtwit" viewBox="0 0 32 32">
            <path
                d="M19.044 13.543l11.913-13.543h-2.823l-10.344 11.759-8.262-11.759h-9.529l12.493 17.782-12.493 14.202h2.823l10.923-12.418 8.725 12.418h9.529l-12.956-18.441zM15.178 17.938l-11.337-15.86h4.336l19.959 27.921h-4.336l-8.622-12.061z">
            </path>
        </symbol>
        <symbol id="icon-ship" viewBox="0 0 32 32">
            <path
                d="M16.14 0.001c-8.947-0.074-16.213 7.192-16.139 16.139 0.075 8.688 7.173 15.787 15.859 15.859 8.947 0.077 16.216-7.192 16.139-16.139-0.072-8.685-7.171-15.784-15.859-15.859zM11.356 7.964c1.024 1.301 1.637 2.947 1.637 4.733 0 1.547-0.459 2.987-1.248 4.189h-5.547l5.158-8.922zM28.268 17.711v1.152c0 0.075-0.040 0.139-0.109 0.168-0.376 0.16-1.616 0.736-2.133 1.453-1.331 1.853-2.347 4.765-4.619 4.765h-9.48c-3.357 0-6.165-2.664-6.163-6.213 0-0.088 0.075-0.16 0.163-0.16h4.493c0.155 0 0.277 0.125 0.277 0.277v0.867c0 0.461 0.373 0.835 0.835 0.835h3.408v-1.984h-2.328c1.339-1.696 2.136-3.837 2.136-6.168 0-2.6-0.997-4.971-2.629-6.744 0.987 0.115 1.931 0.312 2.821 0.573v-0.552c0-0.573 0.464-1.037 1.037-1.037s1.037 0.464 1.037 1.037v1.331c3.181 1.485 5.264 3.949 5.264 6.736 0 1.635-0.715 3.157-1.949 4.437-0.237 0.245-0.565 0.384-0.909 0.384h-2.405v1.981h3.019c0.651 0 1.819-1.235 2.373-1.979 0 0 0.024-0.037 0.088-0.056s5.544-1.277 5.544-1.277c0.115-0.032 0.229 0.056 0.229 0.173v0.002z">
            </path>
        </symbol>
        <symbol id="icon-discord" viewBox="0 0 45 32">
            <path
                d="M37.212 2.955c-2.762-1.214-5.715-2.096-8.802-2.599-0.379 0.644-0.822 1.51-1.128 2.199-3.282-0.464-6.534-0.464-9.756 0-0.305-0.689-0.758-1.555-1.141-2.199-3.091 0.502-6.047 1.388-8.809 2.605-5.571 7.909-7.081 15.621-6.326 23.224 3.695 2.592 7.276 4.167 10.796 5.197 0.869-1.124 1.644-2.319 2.312-3.578-1.272-0.454-2.49-1.014-3.641-1.665 0.305-0.212 0.604-0.435 0.893-0.663 7.021 3.085 14.648 3.085 21.585 0 0.292 0.229 0.591 0.451 0.892 0.663-1.154 0.654-2.376 1.214-3.648 1.668 0.668 1.256 1.44 2.454 2.312 3.578 3.524-1.030 7.108-2.605 10.803-5.201 0.886-8.814-1.513-16.455-6.342-23.231zM15.314 21.51c-2.107 0-3.836-1.849-3.836-4.099s1.691-4.103 3.836-4.103 3.873 1.848 3.836 4.103c0.003 2.251-1.691 4.099-3.836 4.099zM29.49 21.51c-2.108 0-3.836-1.849-3.836-4.099s1.691-4.103 3.836-4.103c2.144 0 3.873 1.848 3.836 4.103 0 2.251-1.692 4.099-3.836 4.099z">
            </path>
        </symbol>
        <symbol id="icon-logo" viewBox="0 0 48 32">
            <path
                d="M0.351 23.381h3.148c1.861 0 3.024 0.828 3.012 2.096-0.005 0.546 0 1.227-0.706 1.85 0.489 0 1.050 0.664 1.050 1.98 0 1.674-0.978 2.57-2.514 2.57h-3.989v-8.497zM2.282 25.202v1.543h1.524c0.564 0 0.699-0.476 0.699-0.724v-0.059c0-0.484-0.19-0.736-0.699-0.736l-1.524-0.024zM2.282 28.351v1.825h1.788c0.427 0 0.589-0.437 0.589-0.823v-0.127c0-0.583-0.277-0.864-0.788-0.864l-1.588-0.011z">
            </path>
            <path d="M9.076 28.102l-2.922-4.72h2.541l1.41 2.769 1.55-2.769h2.312l-2.834 4.72v3.776h-2.058v-3.776z">
            </path>
            <path
                d="M28.968 26.127c0 1.716-1.367 3.096-4.35 3.096v2.652h-2.085v-8.481h3.166c2.446 0 3.269 1.018 3.269 2.733zM24.618 27.639h0.727c0.938 0 1.674-0.524 1.674-1.512s-0.598-1.257-1.674-1.257h-0.727v2.768z">
            </path>
            <path
                d="M0.351 22.237v-11.12h2.948l3.379 5.95 3.563-5.95h2.948v11.12h-2.948v-5.080l-3.563 5.080-3.379-5.080v5.080h-2.948z">
            </path>
            <path
                d="M16.817 11.118h4.012l2.927 11.12h-2.605l-0.685-2.068h-3.378l-0.634 2.068h-2.657l3.020-11.12zM18.823 14.052l-1.328 4.072h2.557l-1.23-4.072z">
            </path>
            <path d="M34.081 11.118h8.266v2.513h-5.634v1.75h5.634v2.449h-5.634v2.084h5.634v2.322h-8.266v-11.119z">
            </path>
            <path d="M29.427 23.394h6.305v1.917h-4.297v1.335h4.297v1.869h-4.297v1.59h4.297v1.771h-6.305v-8.481z"></path>
            <path
                d="M16.778 23.394h3.060l2.233 8.481h-1.987l-0.523-1.577h-2.577l-0.484 1.577h-2.027l2.304-8.481zM18.308 25.632l-1.012 3.105h1.951l-0.938-3.105z">
            </path>
            <path
                d="M28.080 22.253l-3.752-0.010v-11.12l3.752-0.035c3.515 0 5.393 1.633 5.393 5.666 0 3.094-1.802 5.498-5.393 5.498zM26.911 19.848h1.169c1.641 0 2.642-1.002 2.642-3.094s-0.781-3.067-2.642-3.067h-1.169v6.161z">
            </path>
            <path
                d="M36.483 25.752c0-1.323 0.988-2.284 2.586-2.415 1.334-0.11 2.549 0.354 3.471 0.941l-0.842 1.797c0 0-0.943-0.524-1.497-0.692-0.435-0.132-1.013-0.008-1.132 0.275s-0.097 0.572 0.287 0.757c0.031 0.015 0.065 0.031 0.102 0.049 0.212 0.101 0.532 0.253 0.895 0.465h0.006c0 0 0.78 0.402 1.389 1.049 0.049 0.049 0.099 0.1 0.146 0.151h-0.010c0.327 0.386 0.575 0.846 0.575 1.351 0 1.322-1.139 2.375-2.737 2.506-1.334 0.109-2.553-0.474-3.475-1.061l0.651-1.8c0 0 1.289 0.555 1.842 0.724 0.435 0.132 1.013 0.008 1.132-0.275s0.134-0.484-0.287-0.757c-0.131-0.085-0.289-0.173-0.467-0.273-0.133-0.074-0.277-0.155-0.431-0.246-0.166-0.084-2.206-1.139-2.206-2.547h0.002z">
            </path>
            <path
                d="M45.857 12.943v-1.854h0.463l0.578 0.992 0.552-0.992h0.549v1.854h-0.463v-0.915l-0.637 0.915-0.549-0.915v0.915h-0.492z">
            </path>
            <path d="M43.927 11.479v-0.39h1.755v0.39h-0.64v1.464h-0.47v-1.464h-0.646z"></path>
            <path
                d="M9.97 0.855l-0.996-0.158c-0.058-0.009-0.068-0.081-0.014-0.103 2.314-0.944 4.754-0.557 6.533 0.925 0.063 0.053 0.047 0.149-0.029 0.185-0.32 0.157-0.676 0.384-0.835 0.49-0.049 0.033-0.116 0.027-0.159-0.012-1.14-1.013-3.248-1.151-4.499-1.328v0.001z">
            </path>
            <path
                d="M32.728 0.855l0.996-0.158c0.058-0.009 0.068-0.081 0.014-0.103-2.315-0.944-4.755-0.557-6.533 0.925-0.063 0.053-0.047 0.149 0.029 0.185 0.32 0.157 0.676 0.384 0.835 0.49 0.049 0.033 0.116 0.027 0.16-0.012 1.14-1.013 3.248-1.151 4.499-1.328v0.001z">
            </path>
            <path
                d="M21.409 1.668c-1.6 0-2.495-0.377-4.069-0.399-0.053-0.001-0.079-0.060-0.040-0.093 1.123-0.954 3.287-1.176 4.040-1.176 0.632 0 2.728 0.176 3.947 1.169 0.041 0.034 0.014 0.095-0.041 0.094-1.579-0.024-1.59 0.404-3.836 0.404l0.001 0.001z">
            </path>
            <path
                d="M1.569 9.457h-0.974c-0.17 0-0.288-0.16-0.23-0.309 0.107-0.275 0.246-0.667 0.265-0.894 0.017-0.216 0.010-0.396 0.002-0.558-0.014-0.328-0.026-0.588 0.18-0.951 0.169-0.298 0.356-0.537 0.547-0.78 0.239-0.305 0.483-0.617 0.705-1.063 0.169-0.34 0.278-0.824 0.395-1.342 0.108-0.477 0.222-0.983 0.395-1.432 0.362-0.934 0.49-1.267 1.374-1.406 0.864-0.136 1.851 0.126 2.853 0.393 0.574 0.153 1.154 0.307 1.717 0.387 0.355 0.051 0.716 0.095 1.073 0.139 1.501 0.184 2.965 0.364 3.884 1.021 0.109 0.078 0.109 0.226 0.027 0.329-0.344 0.429-0.631 1.193-0.685 2.112-0.040 0.66 0.128 1.482 0.438 2.498 0.179 0.586-0.138 1.22-0.348 1.641-0.014 0.027-0.027 0.053-0.039 0.079-0.040 0.082-0.128 0.136-0.225 0.136h-7.494c-0.133 0-0.24-0.1-0.246-0.223-0.053-1.052-0.488-2.15-1.609-2.15s-1.623 1.31-1.759 2.171c-0.018 0.114-0.121 0.202-0.245 0.202v-0.001zM3.464 5.796v-0.001c0.411 0.412 1.917 0.6 2.734-0.203 0.955-0.938 1.019-2.912 0.060-3.442-0.38-0.21-1.040-0.263-1.040-0.263-0.958 0-1.154 0.726-1.362 1.494-0.053 0.195-0.107 0.393-0.173 0.583-0.061 0.174-0.145 0.338-0.226 0.496-0.237 0.466-0.449 0.881 0.007 1.336zM8.288 6.864c0.917 0.622 2.393 0.458 3.036-0.023 0.846-0.633 1.034-2.752 0.317-3.37-0.774-0.667-1.615-0.74-2.524-0.336-1.027 0.457-1.469 3.297-0.829 3.73h0.001z">
            </path>
            <path
                d="M41.128 9.457h0.973c0.17 0 0.288-0.16 0.23-0.309-0.107-0.275-0.247-0.667-0.265-0.894-0.017-0.216-0.010-0.396-0.002-0.558 0.014-0.328 0.026-0.588-0.18-0.951-0.169-0.298-0.356-0.537-0.547-0.78-0.239-0.305-0.483-0.617-0.705-1.063-0.169-0.34-0.278-0.824-0.395-1.342-0.108-0.477-0.222-0.983-0.395-1.432-0.362-0.934-0.49-1.267-1.374-1.406-0.864-0.136-1.851 0.126-2.852 0.393-0.574 0.153-1.154 0.307-1.718 0.387-0.355 0.051-0.716 0.095-1.074 0.139-1.502 0.184-2.965 0.364-3.884 1.021-0.109 0.078-0.109 0.226-0.026 0.329 0.344 0.429 0.631 1.193 0.685 2.112 0.040 0.66-0.128 1.482-0.438 2.498-0.162 0.532 0.083 1.102 0.287 1.517 0.101 0.205 0.324 0.338 0.566 0.338h7.254c0.133 0 0.24-0.1 0.246-0.223 0.053-1.052 0.488-2.15 1.609-2.15s1.623 1.31 1.759 2.171c0.018 0.114 0.121 0.202 0.245 0.202v-0.001zM39.234 5.796v-0.001c-0.411 0.412-1.916 0.6-2.735-0.203-0.955-0.938-1.019-2.912-0.060-3.442 0.38-0.21 1.040-0.263 1.040-0.263 0.958 0 1.154 0.726 1.362 1.494 0.053 0.195 0.107 0.393 0.173 0.583 0.062 0.174 0.145 0.338 0.226 0.496 0.237 0.466 0.449 0.881-0.007 1.336zM34.41 6.864c-0.917 0.622-2.393 0.458-3.036-0.023-0.846-0.633-1.034-2.752-0.317-3.37 0.774-0.667 1.615-0.74 2.524-0.336 1.027 0.457 1.469 3.297 0.829 3.73h-0.001z">
            </path>
            <path
                d="M18.938 9.457v0.001c0.109 0 0.205-0.068 0.241-0.164 0.176-0.469 0.79-1.786 2.15-1.786s1.974 1.317 2.149 1.786c0.036 0.096 0.131 0.164 0.241 0.164h4.894c0.097 0 0.154-0.103 0.102-0.179-0.623-0.919-0.471-1.524-0.269-2.329 0.142-0.564 0.308-1.226 0.249-2.162-0.089-1.406-0.95-2.291-2.561-2.616-0.837-0.168-1.918-0.010-2.932 0.139-0.645 0.095-1.263 0.185-1.774 0.185-0.686 0-1.394-0.109-2.085-0.215-0.999-0.154-1.962-0.303-2.772-0.109-1.561 0.373-2.334 1.149-2.62 2.698-0.107 0.804 0.071 1.416 0.236 1.985 0.223 0.768 0.422 1.456-0.133 2.432-0.043 0.076 0.014 0.171 0.108 0.171h4.777zM18.239 7.263c-0.957 0.522-2.201 0.514-2.683-0.517-0.548-1.172-0.016-2.829 1.527-3.239 1.616-0.429 3.178-0.22 3.12 0.911-0.044 0.84-0.845 2.235-1.963 2.845v0.001zM27.177 6.745c-0.482 1.032-1.727 1.039-2.683 0.517-1.119-0.61-1.92-2.005-1.963-2.845-0.059-1.13 1.504-1.34 3.12-0.911 1.542 0.41 2.075 2.067 1.527 3.239v-0.001z">
            </path>
        </symbol>
        <symbol id="icon-sharp" viewBox="0 0 32 32">
            <path fill="#fff" style="fill: var(--color1, #fff)"
                d="M23.778 9.636l-14.142 14.142-1.414-1.414 14.142-14.142 1.414 1.414z"></path>
            <path fill="#fff" style="fill: var(--color1, #fff)"
                d="M9.636 8.222l14.142 14.142-1.414 1.414-14.142-14.142 1.414-1.414z"></path>
        </symbol>
    </defs>
</svg>